<?xml version="1.0" encoding="UTF-8"?>
<svg xmlns="http://www.w3.org/2000/svg" xmlns:xlink="http://www.w3.org/1999/xlink" width="184.979996pt" height="31.719999pt" viewBox="0 0 184.979996 31.719999" version="1.1">
<defs>
<clipPath id="clip1">
  <path d="M 166 3 L 184.980469 3 L 184.980469 28 L 166 28 Z M 166 3 "/>
</clipPath>
<clipPath id="clip2">
  <path d="M 0 0 L 22 0 L 22 31.71875 L 0 31.71875 Z M 0 0 "/>
</clipPath>
</defs>
<g id="surface1">
<path style=" stroke:none;fill-rule:nonzero;fill:rgb(3.921509%,5.882263%,14.509583%);fill-opacity:1;" d="M 39.03125 4.28125 L 44.125 4.28125 L 44.125 27.449219 L 39.03125 27.449219 Z M 39.03125 4.28125 "/>
<path style=" stroke:none;fill-rule:nonzero;fill:rgb(3.921509%,5.882263%,14.509583%);fill-opacity:1;" d="M 50.179688 27.449219 L 50.179688 4.28125 L 55.277344 4.28125 L 55.277344 22.816406 L 66.828125 22.816406 L 66.828125 27.449219 L 50.179688 27.449219 "/>
<path style=" stroke:none;fill-rule:nonzero;fill:rgb(3.921509%,5.882263%,14.509583%);fill-opacity:1;" d="M 70.5625 27.449219 L 70.5625 4.28125 L 75.660156 4.28125 L 75.660156 22.816406 L 87.210938 22.816406 L 87.210938 27.449219 L 70.5625 27.449219 "/>
<path style=" stroke:none;fill-rule:nonzero;fill:rgb(3.921509%,5.882263%,14.509583%);fill-opacity:1;" d="M 91.054688 4.28125 L 96.152344 4.28125 L 96.152344 27.449219 L 91.054688 27.449219 Z M 91.054688 4.28125 "/>
<path style=" stroke:none;fill-rule:nonzero;fill:rgb(3.921509%,5.882263%,14.509583%);fill-opacity:1;" d="M 118.457031 27.449219 L 107.238281 12.722656 L 107.238281 27.449219 L 102.207031 27.449219 L 102.207031 4.28125 L 106.90625 4.28125 L 117.761719 18.546875 L 117.761719 4.28125 L 122.792969 4.28125 L 122.792969 27.449219 L 118.457031 27.449219 "/>
<path style=" stroke:none;fill-rule:nonzero;fill:rgb(3.921509%,5.882263%,14.509583%);fill-opacity:1;" d="M 146.910156 15.863281 C 146.910156 11.894531 143.996094 8.582031 139.894531 8.582031 C 135.789062 8.582031 132.941406 11.828125 132.941406 15.800781 L 132.941406 15.863281 C 132.941406 19.835938 135.855469 23.144531 139.960938 23.144531 C 144.0625 23.144531 146.910156 19.902344 146.910156 15.929688 Z M 139.894531 27.847656 C 132.742188 27.847656 127.613281 22.515625 127.613281 15.929688 L 127.613281 15.863281 C 127.613281 9.277344 132.808594 3.882812 139.960938 3.882812 C 147.109375 3.882812 152.238281 9.210938 152.238281 15.800781 L 152.238281 15.863281 C 152.238281 22.453125 147.042969 27.847656 139.894531 27.847656 "/>
<path style=" stroke:none;fill-rule:nonzero;fill:rgb(3.921509%,5.882263%,14.509583%);fill-opacity:1;" d="M 157.171875 4.28125 L 162.269531 4.28125 L 162.269531 27.449219 L 157.171875 27.449219 Z M 157.171875 4.28125 "/>
<g clip-path="url(#clip1)" clip-rule="nonzero">
<path style=" stroke:none;fill-rule:nonzero;fill:rgb(3.921509%,5.882263%,14.509583%);fill-opacity:1;" d="M 176.472656 27.78125 C 172.960938 27.78125 169.421875 26.554688 166.640625 24.074219 L 169.652344 20.464844 C 171.738281 22.1875 173.921875 23.277344 176.570312 23.277344 C 178.65625 23.277344 179.914062 22.453125 179.914062 21.09375 L 179.914062 21.027344 C 179.914062 19.738281 179.117188 19.074219 175.246094 18.082031 C 170.578125 16.890625 167.566406 15.601562 167.566406 11 L 167.566406 10.933594 C 167.566406 6.730469 170.945312 3.949219 175.675781 3.949219 C 179.050781 3.949219 181.933594 5.007812 184.28125 6.894531 L 181.632812 10.734375 C 179.582031 9.3125 177.5625 8.453125 175.609375 8.453125 C 173.65625 8.453125 172.632812 9.34375 172.632812 10.46875 L 172.632812 10.535156 C 172.632812 12.058594 173.625 12.554688 177.628906 13.582031 C 182.328125 14.804688 184.976562 16.492188 184.976562 20.53125 L 184.976562 20.597656 C 184.976562 25.199219 181.46875 27.78125 176.472656 27.78125 "/>
</g>
<g clip-path="url(#clip2)" clip-rule="nonzero">
<path style=" stroke:none;fill-rule:nonzero;fill:rgb(3.921509%,5.882263%,14.509583%);fill-opacity:1;" d="M 17.078125 24.402344 L 20.738281 24.402344 L 20.738281 30.5 L 1.21875 30.5 L 1.21875 24.402344 L 4.878906 24.402344 C 5.550781 24.402344 6.097656 23.855469 6.097656 23.179688 L 6.097656 8.542969 C 6.097656 7.867188 5.550781 7.324219 4.878906 7.324219 L 1.21875 7.324219 L 1.21875 1.222656 L 20.738281 1.222656 L 20.738281 7.324219 L 17.078125 7.324219 C 16.40625 7.324219 15.859375 7.867188 15.859375 8.542969 L 15.859375 23.179688 C 15.859375 23.855469 16.40625 24.402344 17.078125 24.402344 M 21.957031 8.542969 L 21.957031 0.00390625 L 0 0.00390625 L 0 8.542969 L 4.878906 8.542969 L 4.878906 23.179688 L 0 23.179688 L 0 31.71875 L 21.957031 31.71875 L 21.957031 23.179688 L 17.078125 23.179688 L 17.078125 8.542969 L 21.957031 8.542969 "/>
</g>
<path style=" stroke:none;fill-rule:nonzero;fill:rgb(93.331909%,23.921204%,19.607544%);fill-opacity:1;" d="M 17.078125 7.324219 L 20.738281 7.324219 L 20.738281 1.222656 L 1.21875 1.222656 L 1.21875 7.324219 L 4.878906 7.324219 C 5.550781 7.324219 6.097656 7.867188 6.097656 8.542969 L 6.097656 23.179688 C 6.097656 23.855469 5.550781 24.402344 4.878906 24.402344 L 1.21875 24.402344 L 1.21875 30.5 L 20.738281 30.5 L 20.738281 24.402344 L 17.078125 24.402344 C 16.40625 24.402344 15.859375 23.855469 15.859375 23.179688 L 15.859375 8.542969 C 15.859375 7.867188 16.40625 7.324219 17.078125 7.324219 "/>
</g>
</svg>
